<?xml version="1.0" encoding="utf-8"?>
<!-- Generator: Adobe Illustrator 15.0.2, SVG Export Plug-In . SVG Version: 6.00 Build 0)  -->
<!DOCTYPE svg PUBLIC "-//W3C//DTD SVG 1.1//EN" "http://www.w3.org/Graphics/SVG/1.1/DTD/svg11.dtd">
<svg version="1.1" id="Layer_1" xmlns="http://www.w3.org/2000/svg" xmlns:xlink="http://www.w3.org/1999/xlink" x="0px" y="0px"
	 width="30px" height="30px" viewBox="0 0 30 30" enable-background="new 0 0 30 30" xml:space="preserve">
<g>
	<polygon fill="#ED1F24" points="21.14,11.811 21.14,11.32 20.65,11.32 20.16,11.32 19.67,11.32 19.18,11.32 18.69,11.32
		18.19,11.32 17.7,11.32 17.21,11.32 16.72,11.32 16.72,10.831 16.23,10.831 16.23,10.331 15.74,10.331 15.74,9.84 15.74,9.351
		15.74,8.86 15.74,8.36 15.74,7.871 15.74,7.38 15.74,6.891 15.74,6.391 15.74,5.9 15.74,5.411 15.74,4.92 15.74,4.431 15.25,4.431
		15.25,3.94 14.75,3.94 14.26,3.94 14.26,4.431 13.77,4.431 13.77,4.92 13.77,5.411 13.77,5.9 13.77,6.391 13.77,6.891 13.77,7.38
		13.77,7.871 13.77,8.36 13.77,8.86 13.77,9.351 13.77,9.84 13.77,10.331 13.28,10.331 13.28,10.831 12.79,10.831 12.79,11.32
		12.3,11.32 11.81,11.32 11.31,11.32 10.82,11.32 10.33,11.32 9.84,11.32 9.35,11.32 8.85,11.32 8.36,11.32 7.87,11.32 7.87,11.811
		8.36,11.811 8.36,12.3 8.85,12.3 9.35,12.3 9.84,12.3 10.33,12.3 10.82,12.3 11.31,12.3 11.81,12.3 12.3,12.3 12.79,12.3
		13.28,12.3 13.28,12.791 13.28,13.291 12.79,13.291 12.79,13.78 12.79,14.271 12.3,14.271 12.3,14.76 12.3,15.25 12.3,15.74
		12.3,16.23 12.3,16.73 12.3,17.221 12.3,17.711 12.3,18.2 12.3,18.69 12.3,19.181 12.3,19.671 12.3,20.171 12.3,20.66 12.3,21.15
		12.3,21.641 12.3,22.131 12.3,22.62 12.3,23.12 12.3,23.61 12.3,24.101 12.3,24.601 12.3,25.091 12.3,25.58 12.3,26.07 12.3,26.57
		12.3,27.061 12.3,27.551 12.79,27.551 12.79,28.04 12.79,28.53 12.79,29.021 13.28,29.021 13.28,29.511 13.28,30.011 13.77,30.011
		14.26,30.011 14.75,30.011 15.25,30.011 15.74,30.011 15.74,29.511 15.74,29.021 15.74,28.53 15.74,28.04 15.74,27.551
		15.74,27.061 15.74,26.57 15.74,26.07 15.74,25.58 15.74,25.091 15.74,24.601 15.74,24.101 15.74,23.61 15.74,23.12 15.74,22.62
		15.74,22.131 15.74,21.641 15.74,21.15 15.74,20.66 15.74,20.171 15.74,19.671 15.74,19.181 15.74,18.69 15.74,18.2 15.74,17.711
		15.74,17.221 15.74,16.73 15.74,16.23 15.74,15.74 15.74,15.25 15.74,14.76 15.74,14.271 15.74,13.78 15.74,13.291 15.74,12.791
		15.74,12.3 16.23,12.3 16.72,12.3 17.21,12.3 17.7,12.3 18.19,12.3 18.69,12.3 19.18,12.3 19.67,12.3 20.16,12.3 20.65,12.3
		21.14,12.3 21.64,12.3 21.64,11.811 	"/>
</g>
</svg>
